PathFileType	4	(X/Y/Z)	./resultDataOpenSim/trcMotMarkerGrf/sub10/qtm-12-07.trc
DataRate	CameraRate	NumFrames	NumMarkers	Units	OrigDataRate	OrigDataStartFrame	OrigNumFrames
250.000000	250.000000	6	24	m	250.000000	1	503
Frame#	Time	L.Toe.Tip			R.Toe.Tip			L.Ankle.Lat			R.Ankle.Lat			L.Ankle.Med			R.Ankle.Med			L.Heel			R.Heel			L.Knee.Lat			R.Knee.Lat			L.Knee.Med			R.Knee.Med			L.Thigh.Upper			R.Thigh.Upper			L.ASIS			R.ASIS			V.Sacral			L.Acromium			R.Acromium			C7			L.Elbow			R.Elbow			L.Wrist.Lat			R.Wrist.Lat
		X1	Y1	Z1	X2	Y2	Z2	X3	Y3	Z3	X4	Y4	Z4	X5	Y5	Z5	X6	Y6	Z6	X7	Y7	Z7	X8	Y8	Z8	X9	Y9	Z9	X10	Y10	Z10	X11	Y11	Z11	X12	Y12	Z12	X13	Y13	Z13	X14	Y14	Z14	X15	Y15	Z15	X16	Y16	Z16	X17	Y17	Z17	X18	Y18	Z18	X19	Y19	Z19	X20	Y20	Z20	X21	Y21	Z21	X22	Y22	Z22	X23	Y23	Z23	X24	Y24	Z24

1	0	-1.4912854	0.039568474	-0.025271954	-0.91153599	0.10221973	0.093645333	-1.628073	0.066498038	-0.041897747	-1.049537	0.074755648	0.1116366	-1.6120934	0.089064965	0.040206515	-1.0340334	0.11325651	0.033884772	NaN	NaN	NaN	-1.0812458	0.037534524	0.051409225	-1.5021055	0.43257698	-0.088539072	-1.179113	0.45171628	0.16312838	-1.493215	0.41194877	0.033513976	-1.1659907	0.4631854	0.032733305	-1.3985503	0.81058053	-0.15991783	-1.3179108	0.84669708	0.21685133	-1.3167347	0.91592867	-0.10841982	-1.2635085	0.93292191	0.13249353	-1.4770108	0.93986488	0.054950283	-1.3165415	1.3845513	-0.13727427	-1.3420415	1.3848084	0.19129001	-1.41282	1.4264674	0.017478151	-1.3824436	1.0401097	-0.19418843	-1.4905086	1.0658828	0.22865432	-1.2072377	0.87011041	-0.23575137	-1.3853485	0.85881191	0.31543071
2	0.004	-1.4912794	0.039553345	-0.025252638	-0.89807998	0.10643956	0.091254801	-1.627824	0.066876229	-0.041697578	-1.0355304	0.076352758	0.11200754	-1.612	0.089363022	0.040457075	-1.022085	0.11481877	0.033621653	NaN	NaN	NaN	-1.0672509	0.038419948	0.053920578	-1.498353	0.43199261	-0.088521363	-1.1715621	0.45098923	0.16368022	-1.4902651	0.41116251	0.033544642	-1.1624618	0.460799	0.032646683	-1.3947381	0.80975877	-0.15988785	-1.3119672	0.84524076	0.21667195	-1.3128445	0.91493135	-0.1087221	-1.2584609	0.93178539	0.13216432	-1.4748558	0.93663455	0.051844573	-1.3115294	1.3826855	-0.13762656	-1.3370052	1.3835077	0.19088982	-1.4079951	1.4252027	0.016878607	-1.3759983	1.0378295	-0.19458291	-1.4860205	1.0641841	0.2282128	-1.1986881	0.8698073	-0.23480238	-1.3828212	0.85796901	0.31594795
3	0.008	-1.4912849	0.039537382	-0.025222052	-0.88501358	0.11077146	0.088859097	-1.627562	0.067295218	-0.041457148	-1.0218719	0.07791755	0.11225931	-1.6118042	0.089696748	0.040741929	-1.0104049	0.1163548	0.033354292	NaN	NaN	NaN	-1.0535346	0.039239386	0.055815374	-1.4947161	0.43140874	-0.088519031	-1.1643926	0.4501764	0.16425683	-1.4871261	0.41042404	0.033567287	-1.1588834	0.45843073	0.032693566	-1.3909419	0.80890613	-0.15987893	-1.3061791	0.84366542	0.21643971	-1.308915	0.91394933	-0.1090204	-1.2532852	0.93063651	0.13182488	-1.4718831	0.93376439	0.05034272	-1.3065179	1.3808271	-0.13797626	-1.3320155	1.3822151	0.19048855	-1.4031361	1.4239446	0.016352846	-1.3695347	1.035567	-0.19494822	-1.481568	1.062463	0.22776649	-1.1901678	0.86950646	-0.23383357	-1.3801241	0.85708175	0.31638058
4	0.012	-1.4913019	0.039521288	-0.025177013	-0.87256522	0.11521656	0.086405825	-1.6273016	0.067767181	-0.041137508	-1.0087996	0.079374748	0.11231869	-1.6114465	0.090076745	0.041084744	-0.99914048	0.11786342	0.033087341	NaN	NaN	NaN	-1.0402534	0.039972442	0.056957003	-1.491117	0.43082844	-0.088538331	-1.1578426	0.4492118	0.16481378	-1.4838033	0.40973077	0.033594083	-1.155197	0.45611974	0.03295281	-1.3871419	0.80802053	-0.15989943	-1.3004691	0.841966	0.2161793	-1.3049174	0.91299194	-0.10931604	-1.2478411	0.92947678	0.13147653	-1.4679063	0.93136489	0.050639329	-1.3014914	1.378978	-0.13831836	-1.3270349	1.3809506	0.19009351	-1.3982357	1.4226887	0.015875889	-1.3630664	1.0333249	-0.1953438	-1.4772694	1.0608829	0.227323	-1.18169	0.86921296	-0.2328341	-1.3770564	0.85616764	0.31671105
5	0.016	-1.4913183	0.039506924	-0.025124046	-0.86081893	0.11965819	0.083885047	-1.6270619	0.068276709	-0.040725473	-0.9964446	0.080631296	0.11216013	-1.610922	0.090493923	0.041488846	-0.9883298	0.11934547	0.032828801	NaN	NaN	NaN	-1.0274846	0.040626956	0.057556215	-1.4875453	0.43024258	-0.088563927	-1.1518368	0.4481288	0.16529804	-1.4803911	0.40905135	0.03364067	-1.1513567	0.45391391	0.033425485	-1.3833072	0.80711352	-0.15993338	-1.2946545	0.84021999	0.21594557	-1.3008481	0.91206755	-0.10961219	-1.2420961	0.9283151	0.13111574	-1.4632159	0.92937606	0.051879544	-1.2964432	1.3771391	-0.13865259	-1.3220202	1.3797285	0.18971362	-1.3933095	1.4214314	0.015402396	-1.3566353	1.0311032	-0.19585212	-1.4731961	1.05959	0.22689919	-1.173269	0.86893196	-0.23180446	-1.3736555	0.85528747	0.31697697
6	0.02	-1.4913214	0.039495661	-0.025072047	-0.84976727	0.12390192	0.081446578	-1.6268357	0.068806496	-0.040235154	-0.98476536	0.081670194	0.11180972	-1.6102756	0.090937054	0.041936919	-0.97795777	0.12077466	0.032580172	NaN	NaN	NaN	-1.0152815	0.041209801	0.057824758	-1.4840855	0.42964416	-0.088570683	-1.1459796	0.44706443	0.16571531	-1.4768893	0.40837652	0.033703227	-1.1473418	0.45184027	0.034064384	-1.3794172	0.80619488	-0.15994886	-1.288651	0.83848479	0.21574317	-1.2967261	0.91117313	-0.10992147	-1.2362093	0.92714984	0.13072634	-1.4581578	0.92767241	0.053285667	-1.2913734	1.3753055	-0.13898215	-1.3169832	1.378535	0.18934976	-1.3883677	1.4201726	0.014936614	-1.3502379	1.0289113	-0.19642839	-1.4692923	1.0585591	0.22651311	-1.1649061	0.86866585	-0.23075021	-1.3702081	0.85448083	0.31722231
